<svg width="128" height="128" viewBox="0 0 128 128" fill="none" xmlns="http://www.w3.org/2000/svg">
<rect x="30" y="40" width="24" height="24" fill="#FDDBFA"/>
<rect x="30" y="64" width="24" height="24" fill="#DBEDFD"/>
<rect x="6" y="64" width="24" height="24" fill="#DBFDDF"/>
<path d="M59.4347 59.4545H62.6591L66.9773 69.9943H67.1477L71.4659 59.4545H74.6903V74H72.1619V64.0071H72.027L68.0071 73.9574H66.1179L62.098 63.9858H61.9631V74H59.4347V59.4545ZM86.7287 59.4545H89.3636V68.9574C89.3636 69.9991 89.1174 70.9152 88.625 71.706C88.1373 72.4967 87.4508 73.1146 86.5653 73.5597C85.6799 74 84.6454 74.2202 83.4616 74.2202C82.2732 74.2202 81.2363 74 80.3509 73.5597C79.4654 73.1146 78.7789 72.4967 78.2912 71.706C77.8035 70.9152 77.5597 69.9991 77.5597 68.9574V59.4545H80.1946V68.7372C80.1946 69.3433 80.3272 69.883 80.5923 70.3565C80.8622 70.83 81.241 71.2017 81.7287 71.4716C82.2164 71.7367 82.794 71.8693 83.4616 71.8693C84.1293 71.8693 84.7069 71.7367 85.1946 71.4716C85.687 71.2017 86.0658 70.83 86.331 70.3565C86.5961 69.883 86.7287 69.3433 86.7287 68.7372V59.4545ZM92.2276 74V59.4545H94.8626V71.7912H101.269V74H92.2276ZM101.061 61.6634V59.4545H112.666V61.6634H108.17V74H105.557V61.6634H101.061ZM117.538 59.4545V74H114.903V59.4545H117.538Z" fill="black"/>
</svg>
